<svg width="22" height="18" viewBox="0 0 22 18" fill="none" xmlns="http://www.w3.org/2000/svg">
<path d="M0.388596 8.63098L5.45786 10.4089L7.41997 16.3387C7.54555 16.7184 8.03974 16.8587 8.36764 16.6067L11.1934 14.4421C11.4895 14.2152 11.9115 14.204 12.2209 14.4151L17.3176 17.8923C17.6684 18.1319 18.1656 17.9513 18.2535 17.5529L21.987 0.676648C22.0831 0.24138 21.6281 -0.121693 21.1871 0.0386445L0.382729 7.58068C-0.130741 7.76662 -0.126341 8.44971 0.388596 8.63098ZM7.10373 9.46253L17.0109 3.72851C17.1889 3.6258 17.3722 3.85203 17.2191 3.98533L9.53333 10.5171L8.06667 14.7015C8.02958 14.9604 7.8152 14.3046 7.73901 14.054L6.66785 10.5171C6.54528 10.1137 6.72401 9.68273 7.10373 9.46253Z" fill="#0D8967"/>
</svg>
